<?xml version="1.0" encoding="utf-8"?>
<!-- Generator: Adobe Illustrator 26.0.1, SVG Export Plug-In . SVG Version: 6.00 Build 0)  -->
<svg version="1.1" id="Layer_1" xmlns="http://www.w3.org/2000/svg" xmlns:xlink="http://www.w3.org/1999/xlink" x="0px" y="0px"
	 viewBox="0 0 1500 250" style="enable-background:new 0 0 1500 250;" xml:space="preserve">
<g>
	<path d="M184.2,234.4H134l-83.9-127v127H0V28.5h50.2L134,156.1V28.5h50.2V234.4z"/>
	<path d="M354.6,28.5v40.2h-83.9v43.4h62.8v39h-62.8v83.3h-50.2V28.5H354.6z"/>
	<path d="M529.1,28.5v40.2h-54.6v165.7h-50.2V68.7h-54.6V28.5H529.1z"/>
	<path d="M764.7,28.5v40.2h-54.6v165.7H660V68.7h-54.6V28.5H764.7z"/>
	<path d="M918.1,198.1h-76.8l-12.3,36.4h-52.5l74.5-205.9H909l74.5,205.9h-53.1L918.1,198.1z M905.2,159.3L879.6,84l-25.2,75.4
		H905.2z"/>
	<path d="M1056.2,195.7h65.7v38.7h-115.9V28.5h50.2V195.7z"/>
	<path d="M1265.4,234.4l-69.2-90.9v90.9H1146V28.5h50.2v90.3l68.6-90.3h59l-79.8,100.9l82.7,105H1265.4z"/>
	<path d="M1384.4,229.2c-11.9-4.9-21.5-12.1-28.6-21.7s-10.9-21.1-11.3-34.6h53.4c0.8,7.6,3.4,13.5,7.9,17.4c4.5,4,10.4,6,17.6,6
		c7.4,0,13.3-1.7,17.6-5.1c4.3-3.4,6.4-8.2,6.4-14.2c0-5.1-1.7-9.3-5.1-12.6c-3.4-3.3-7.6-6.1-12.6-8.2c-5-2.1-12.1-4.6-21.3-7.3
		c-13.3-4.1-24.2-8.2-32.6-12.3c-8.4-4.1-15.6-10.2-21.7-18.2c-6.1-8-9.1-18.5-9.1-31.4c0-19.2,6.9-34.2,20.8-45
		c13.9-10.8,32-16.3,54.3-16.3c22.7,0,41,5.4,54.9,16.3c13.9,10.8,21.3,26,22.3,45.3h-54.3c-0.4-6.6-2.8-11.9-7.3-15.7
		c-4.5-3.8-10.3-5.7-17.3-5.7c-6.1,0-10.9,1.6-14.7,4.8c-3.7,3.2-5.6,7.9-5.6,13.9c0,6.6,3.1,11.8,9.4,15.5c6.3,3.7,16,7.7,29.3,12
		c13.3,4.5,24.1,8.8,32.4,12.9s15.5,10.1,21.6,17.9c6.1,7.8,9.1,17.9,9.1,30.2c0,11.7-3,22.4-8.9,32c-6,9.6-14.6,17.2-26,22.9
		c-11.3,5.7-24.7,8.5-40.2,8.5C1409.9,236.5,1396.4,234,1384.4,229.2z"/>
</g>
</svg>
