<?xml version="1.0" encoding="utf-8"?>
<!-- Generator: Adobe Illustrator 26.0.1, SVG Export Plug-In . SVG Version: 6.00 Build 0)  -->
<svg version="1.1" id="Layer_1" xmlns="http://www.w3.org/2000/svg" xmlns:xlink="http://www.w3.org/1999/xlink" x="0px" y="0px"
	 viewBox="0 0 200 23" style="enable-background:new 0 0 200 23;" xml:space="preserve">
<style type="text/css">
	.st0{fill:#FC00AD;}
	.st1{fill:#E690FF;}
	.st2{fill:#EFF380;}
	.st3{fill:#FFFFFF;}
</style>
<g>
	<path class="st0" d="M1.6,14h2.1v1.2H0V8.6h1.6V14z"/>
	<path class="st0" d="M9.5,13H5.8c0,0.3,0.1,0.6,0.3,0.8C6.3,13.9,6.5,14,6.8,14c0.4,0,0.7-0.2,0.8-0.5h1.7
		c-0.1,0.3-0.2,0.7-0.5,0.9C8.7,14.7,8.4,14.9,8,15c-0.3,0.2-0.7,0.2-1.2,0.2c-0.5,0-1-0.1-1.4-0.3c-0.4-0.2-0.7-0.5-0.9-0.9
		c-0.2-0.4-0.3-0.9-0.3-1.4c0-0.5,0.1-1,0.3-1.4c0.2-0.4,0.5-0.7,0.9-0.9C5.9,10,6.3,9.8,6.9,9.8c0.5,0,1,0.1,1.4,0.3
		c0.4,0.2,0.7,0.5,0.9,0.9c0.2,0.4,0.3,0.9,0.3,1.4C9.5,12.6,9.5,12.8,9.5,13z M7.8,12.1c0-0.3-0.1-0.5-0.3-0.7
		c-0.2-0.2-0.4-0.2-0.7-0.2c-0.3,0-0.5,0.1-0.7,0.2c-0.2,0.2-0.3,0.4-0.3,0.7H7.8z"/>
	<path class="st0" d="M10.3,11.1c0.2-0.4,0.5-0.7,0.8-0.9c0.4-0.2,0.7-0.3,1.2-0.3c0.4,0,0.7,0.1,1,0.2c0.3,0.2,0.5,0.3,0.6,0.6V9.9
		h1.6v5.3H14v-0.7c-0.2,0.2-0.4,0.4-0.7,0.6c-0.3,0.2-0.6,0.2-1,0.2c-0.4,0-0.8-0.1-1.2-0.3c-0.4-0.2-0.6-0.5-0.8-1
		c-0.2-0.4-0.3-0.9-0.3-1.4C10,12,10.1,11.5,10.3,11.1z M13.6,11.6c-0.2-0.2-0.5-0.3-0.8-0.3c-0.3,0-0.6,0.1-0.8,0.3
		c-0.2,0.2-0.3,0.5-0.3,1c0,0.4,0.1,0.7,0.3,1c0.2,0.2,0.5,0.4,0.8,0.4c0.3,0,0.6-0.1,0.8-0.3c0.2-0.2,0.3-0.6,0.3-1
		C14,12.2,13.9,11.8,13.6,11.6z"/>
	<path class="st0" d="M19.1,10.1c0.3-0.2,0.6-0.3,0.9-0.3v1.7h-0.4c-0.4,0-0.7,0.1-0.9,0.3c-0.2,0.2-0.3,0.5-0.3,0.9v2.5h-1.6V9.9
		h1.6v0.9C18.6,10.5,18.8,10.3,19.1,10.1z"/>
	<path class="st0" d="M25.5,10.5c0.4,0.4,0.6,1,0.6,1.7v3.1h-1.6v-2.9c0-0.4-0.1-0.6-0.3-0.8c-0.2-0.2-0.4-0.3-0.7-0.3
		c-0.3,0-0.6,0.1-0.7,0.3c-0.2,0.2-0.3,0.5-0.3,0.8v2.9h-1.6V9.9h1.6v0.7c0.2-0.2,0.4-0.4,0.7-0.6c0.3-0.1,0.6-0.2,0.9-0.2
		C24.7,9.9,25.1,10.1,25.5,10.5z"/>
	<path class="st0" d="M28.9,13.7l-1.1,2.7h-1l0.5-2.7H28.9z"/>
	<path class="st1" d="M32.1,10.1c0.3-0.5,0.7-0.9,1.2-1.2c0.5-0.3,1.1-0.4,1.7-0.4c0.8,0,1.5,0.2,2,0.6c0.6,0.4,0.9,1,1.1,1.7h-1.8
		c-0.1-0.3-0.3-0.5-0.6-0.6C35.5,10,35.3,10,35,10c-0.5,0-0.9,0.2-1.2,0.5c-0.3,0.3-0.5,0.8-0.5,1.4s0.2,1,0.5,1.4
		c0.3,0.3,0.7,0.5,1.2,0.5c0.3,0,0.6-0.1,0.8-0.2c0.2-0.1,0.4-0.4,0.6-0.6h1.8c-0.2,0.7-0.6,1.3-1.1,1.7c-0.6,0.4-1.2,0.6-2,0.6
		c-0.6,0-1.2-0.1-1.7-0.4c-0.5-0.3-0.9-0.7-1.2-1.2c-0.3-0.5-0.4-1.1-0.4-1.8C31.6,11.2,31.8,10.6,32.1,10.1z"/>
	<path class="st1" d="M41.5,10.1c0.3-0.2,0.6-0.3,0.9-0.3v1.7H42c-0.4,0-0.7,0.1-0.9,0.3c-0.2,0.2-0.3,0.5-0.3,0.9v2.5h-1.6V9.9h1.6
		v0.9C40.9,10.5,41.2,10.3,41.5,10.1z"/>
	<path class="st1" d="M48.1,13h-3.7c0,0.3,0.1,0.6,0.3,0.8c0.2,0.2,0.4,0.3,0.7,0.3c0.4,0,0.7-0.2,0.8-0.5H48
		c-0.1,0.3-0.2,0.7-0.5,0.9c-0.2,0.3-0.5,0.5-0.9,0.7c-0.3,0.2-0.7,0.2-1.2,0.2c-0.5,0-1-0.1-1.4-0.3c-0.4-0.2-0.7-0.5-0.9-0.9
		c-0.2-0.4-0.3-0.9-0.3-1.4c0-0.5,0.1-1,0.3-1.4c0.2-0.4,0.5-0.7,0.9-0.9c0.4-0.2,0.9-0.3,1.4-0.3c0.5,0,1,0.1,1.4,0.3
		c0.4,0.2,0.7,0.5,0.9,0.9c0.2,0.4,0.3,0.9,0.3,1.4C48.2,12.6,48.1,12.8,48.1,13z M46.5,12.1c0-0.3-0.1-0.5-0.3-0.7
		c-0.2-0.2-0.4-0.2-0.7-0.2c-0.3,0-0.5,0.1-0.7,0.2c-0.2,0.2-0.3,0.4-0.3,0.7H46.5z"/>
	<path class="st1" d="M49,11.1c0.2-0.4,0.5-0.7,0.8-0.9c0.4-0.2,0.7-0.3,1.2-0.3c0.4,0,0.7,0.1,1,0.2c0.3,0.2,0.5,0.3,0.6,0.6V9.9
		h1.6v5.3h-1.6v-0.7c-0.2,0.2-0.4,0.4-0.7,0.6c-0.3,0.2-0.6,0.2-1,0.2c-0.4,0-0.8-0.1-1.2-0.3c-0.4-0.2-0.6-0.5-0.8-1
		c-0.2-0.4-0.3-0.9-0.3-1.4C48.7,12,48.8,11.5,49,11.1z M52.3,11.6c-0.2-0.2-0.5-0.3-0.8-0.3c-0.3,0-0.6,0.1-0.8,0.3
		c-0.2,0.2-0.3,0.5-0.3,1c0,0.4,0.1,0.7,0.3,1c0.2,0.2,0.5,0.4,0.8,0.4c0.3,0,0.6-0.1,0.8-0.3s0.3-0.6,0.3-1
		C52.6,12.2,52.5,11.8,52.3,11.6z"/>
	<path class="st1" d="M58.4,13.8v1.4h-0.8c-0.6,0-1-0.1-1.4-0.4c-0.3-0.3-0.5-0.8-0.5-1.4v-2.1H55V9.9h0.6V8.6h1.6v1.3h1.1v1.3h-1.1
		v2.1c0,0.2,0,0.3,0.1,0.3c0.1,0.1,0.2,0.1,0.4,0.1H58.4z"/>
	<path class="st1" d="M64.2,13h-3.7c0,0.3,0.1,0.6,0.3,0.8c0.2,0.2,0.4,0.3,0.7,0.3c0.4,0,0.7-0.2,0.8-0.5h1.7
		c-0.1,0.3-0.2,0.7-0.5,0.9c-0.2,0.3-0.5,0.5-0.9,0.7c-0.3,0.2-0.7,0.2-1.2,0.2c-0.5,0-1-0.1-1.4-0.3c-0.4-0.2-0.7-0.5-0.9-0.9
		c-0.2-0.4-0.3-0.9-0.3-1.4c0-0.5,0.1-1,0.3-1.4c0.2-0.4,0.5-0.7,0.9-0.9c0.4-0.2,0.9-0.3,1.4-0.3c0.5,0,1,0.1,1.4,0.3
		c0.4,0.2,0.7,0.5,0.9,0.9c0.2,0.4,0.3,0.9,0.3,1.4C64.2,12.6,64.2,12.8,64.2,13z M62.6,12.1c0-0.3-0.1-0.5-0.3-0.7
		c-0.2-0.2-0.4-0.2-0.7-0.2c-0.3,0-0.5,0.1-0.7,0.2c-0.2,0.2-0.3,0.4-0.3,0.7H62.6z"/>
	<path class="st2" d="M67.1,11.1c0.2-0.4,0.5-0.7,0.8-0.9c0.4-0.2,0.7-0.3,1.2-0.3c0.4,0,0.7,0.1,1,0.2c0.3,0.2,0.5,0.3,0.6,0.6V9.9
		h1.6v5.3h-1.6v-0.7c-0.2,0.2-0.4,0.4-0.7,0.6c-0.3,0.2-0.6,0.2-1,0.2c-0.4,0-0.8-0.1-1.2-0.3c-0.4-0.2-0.6-0.5-0.8-1
		c-0.2-0.4-0.3-0.9-0.3-1.4C66.8,12,66.9,11.5,67.1,11.1z M70.4,11.6c-0.2-0.2-0.5-0.3-0.8-0.3c-0.3,0-0.6,0.1-0.8,0.3
		c-0.2,0.2-0.3,0.5-0.3,1c0,0.4,0.1,0.7,0.3,1c0.2,0.2,0.5,0.4,0.8,0.4c0.3,0,0.6-0.1,0.8-0.3s0.3-0.6,0.3-1
		C70.7,12.2,70.6,11.8,70.4,11.6z"/>
	<path class="st2" d="M78.2,10.5c0.4,0.4,0.6,1,0.6,1.7v3.1h-1.6v-2.9c0-0.4-0.1-0.6-0.3-0.8c-0.2-0.2-0.4-0.3-0.7-0.3
		c-0.3,0-0.6,0.1-0.7,0.3c-0.2,0.2-0.3,0.5-0.3,0.8v2.9h-1.6V9.9h1.6v0.7c0.2-0.2,0.4-0.4,0.7-0.6c0.3-0.1,0.6-0.2,0.9-0.2
		C77.4,9.9,77.9,10.1,78.2,10.5z"/>
	<path class="st2" d="M79.9,11.1c0.2-0.4,0.5-0.7,0.8-0.9c0.4-0.2,0.7-0.3,1.2-0.3c0.3,0,0.7,0.1,1,0.2c0.3,0.1,0.5,0.3,0.7,0.6V8.2
		h1.6v7h-1.6v-0.8c-0.2,0.3-0.4,0.5-0.6,0.6c-0.3,0.2-0.6,0.2-1,0.2c-0.4,0-0.8-0.1-1.2-0.3c-0.4-0.2-0.6-0.5-0.8-1
		c-0.2-0.4-0.3-0.9-0.3-1.4C79.6,12,79.7,11.5,79.9,11.1z M83.2,11.6c-0.2-0.2-0.5-0.3-0.8-0.3c-0.3,0-0.6,0.1-0.8,0.3
		c-0.2,0.2-0.3,0.5-0.3,1c0,0.4,0.1,0.7,0.3,1c0.2,0.2,0.5,0.4,0.8,0.4c0.3,0,0.6-0.1,0.8-0.3s0.3-0.6,0.3-1
		C83.5,12.2,83.4,11.8,83.2,11.6z"/>
	<path class="st2" d="M89.4,15c-0.4-0.2-0.7-0.4-0.9-0.7c-0.2-0.3-0.4-0.7-0.4-1.1h1.7c0,0.2,0.1,0.4,0.3,0.6
		c0.1,0.1,0.3,0.2,0.6,0.2c0.2,0,0.4-0.1,0.6-0.2c0.1-0.1,0.2-0.3,0.2-0.5c0-0.2-0.1-0.3-0.2-0.4c-0.1-0.1-0.2-0.2-0.4-0.3
		c-0.2-0.1-0.4-0.1-0.7-0.2c-0.4-0.1-0.8-0.3-1.1-0.4s-0.5-0.3-0.7-0.6c-0.2-0.3-0.3-0.6-0.3-1c0-0.6,0.2-1.1,0.7-1.5
		c0.4-0.3,1-0.5,1.8-0.5c0.7,0,1.3,0.2,1.8,0.5c0.4,0.3,0.7,0.8,0.7,1.5h-1.8c0-0.2-0.1-0.4-0.2-0.5c-0.1-0.1-0.3-0.2-0.6-0.2
		c-0.2,0-0.4,0.1-0.5,0.2c-0.1,0.1-0.2,0.3-0.2,0.4c0,0.2,0.1,0.4,0.3,0.5c0.2,0.1,0.5,0.2,0.9,0.4c0.4,0.1,0.8,0.3,1,0.4
		c0.3,0.1,0.5,0.3,0.7,0.6c0.2,0.3,0.3,0.6,0.3,1c0,0.4-0.1,0.7-0.3,1c-0.2,0.3-0.5,0.6-0.8,0.7c-0.4,0.2-0.8,0.3-1.3,0.3
		C90.3,15.3,89.8,15.2,89.4,15z"/>
	<path class="st2" d="M98.9,10.5c0.4,0.4,0.5,1,0.5,1.7v3.1h-1.6v-2.9c0-0.4-0.1-0.6-0.3-0.8c-0.2-0.2-0.4-0.3-0.7-0.3
		c-0.3,0-0.6,0.1-0.7,0.3c-0.2,0.2-0.3,0.5-0.3,0.8v2.9h-1.6v-7h1.6v2.4c0.2-0.2,0.4-0.4,0.7-0.6c0.3-0.1,0.6-0.2,1-0.2
		C98,9.9,98.5,10.1,98.9,10.5z"/>
	<path class="st2" d="M100.5,11.1c0.2-0.4,0.5-0.7,0.8-0.9c0.4-0.2,0.7-0.3,1.2-0.3c0.4,0,0.7,0.1,1,0.2c0.3,0.2,0.5,0.3,0.6,0.6
		V9.9h1.6v5.3h-1.6v-0.7c-0.2,0.2-0.4,0.4-0.7,0.6c-0.3,0.2-0.6,0.2-1,0.2c-0.4,0-0.8-0.1-1.2-0.3c-0.4-0.2-0.6-0.5-0.8-1
		c-0.2-0.4-0.3-0.9-0.3-1.4C100.2,12,100.3,11.5,100.5,11.1z M103.8,11.6c-0.2-0.2-0.5-0.3-0.8-0.3c-0.3,0-0.6,0.1-0.8,0.3
		c-0.2,0.2-0.3,0.5-0.3,1c0,0.4,0.1,0.7,0.3,1c0.2,0.2,0.5,0.4,0.8,0.4c0.3,0,0.6-0.1,0.8-0.3s0.3-0.6,0.3-1
		C104.2,12.2,104.1,11.8,103.8,11.6z"/>
	<path class="st2" d="M109.3,10.1c0.3-0.2,0.6-0.3,0.9-0.3v1.7h-0.4c-0.4,0-0.7,0.1-0.9,0.3c-0.2,0.2-0.3,0.5-0.3,0.9v2.5H107V9.9
		h1.6v0.9C108.8,10.5,109,10.3,109.3,10.1z"/>
	<path class="st2" d="M116,13h-3.7c0,0.3,0.1,0.6,0.3,0.8c0.2,0.2,0.4,0.3,0.7,0.3c0.4,0,0.7-0.2,0.8-0.5h1.7
		c-0.1,0.3-0.2,0.7-0.5,0.9c-0.2,0.3-0.5,0.5-0.9,0.7c-0.3,0.2-0.7,0.2-1.2,0.2c-0.5,0-1-0.1-1.4-0.3c-0.4-0.2-0.7-0.5-0.9-0.9
		c-0.2-0.4-0.3-0.9-0.3-1.4c0-0.5,0.1-1,0.3-1.4s0.5-0.7,0.9-0.9c0.4-0.2,0.9-0.3,1.4-0.3c0.5,0,1,0.1,1.4,0.3
		c0.4,0.2,0.7,0.5,0.9,0.9c0.2,0.4,0.3,0.9,0.3,1.4C116,12.6,116,12.8,116,13z M114.3,12.1c0-0.3-0.1-0.5-0.3-0.7
		c-0.2-0.2-0.4-0.2-0.7-0.2c-0.3,0-0.5,0.1-0.7,0.2c-0.2,0.2-0.3,0.4-0.3,0.7H114.3z"/>
	<path class="st3" d="M121.8,13.8v1.4H121c-0.6,0-1-0.1-1.4-0.4c-0.3-0.3-0.5-0.8-0.5-1.4v-2.1h-0.6V9.9h0.6V8.6h1.6v1.3h1.1v1.3
		h-1.1v2.1c0,0.2,0,0.3,0.1,0.3c0.1,0.1,0.2,0.1,0.4,0.1H121.8z"/>
	<path class="st3" d="M127.4,10.5c0.4,0.4,0.5,1,0.5,1.7v3.1h-1.6v-2.9c0-0.4-0.1-0.6-0.3-0.8c-0.2-0.2-0.4-0.3-0.7-0.3
		c-0.3,0-0.6,0.1-0.7,0.3c-0.2,0.2-0.3,0.5-0.3,0.8v2.9h-1.6v-7h1.6v2.4c0.2-0.2,0.4-0.4,0.7-0.6c0.3-0.1,0.6-0.2,1-0.2
		C126.5,9.9,127,10.1,127.4,10.5z"/>
	<path class="st3" d="M134,13h-3.7c0,0.3,0.1,0.6,0.3,0.8c0.2,0.2,0.4,0.3,0.7,0.3c0.4,0,0.7-0.2,0.8-0.5h1.7
		c-0.1,0.3-0.2,0.7-0.5,0.9c-0.2,0.3-0.5,0.5-0.9,0.7c-0.3,0.2-0.7,0.2-1.2,0.2c-0.5,0-1-0.1-1.4-0.3c-0.4-0.2-0.7-0.5-0.9-0.9
		c-0.2-0.4-0.3-0.9-0.3-1.4c0-0.5,0.1-1,0.3-1.4c0.2-0.4,0.5-0.7,0.9-0.9c0.4-0.2,0.9-0.3,1.4-0.3c0.5,0,1,0.1,1.4,0.3
		c0.4,0.2,0.7,0.5,0.9,0.9c0.2,0.4,0.3,0.9,0.3,1.4C134,12.6,134,12.8,134,13z M132.4,12.1c0-0.3-0.1-0.5-0.3-0.7
		c-0.2-0.2-0.4-0.2-0.7-0.2c-0.3,0-0.5,0.1-0.7,0.2c-0.2,0.2-0.3,0.4-0.3,0.7H132.4z"/>
	<path class="st3" d="M144.5,9.9l-1.4,5.3h-1.8l-0.8-3.4l-0.9,3.4h-1.8l-1.4-5.3h1.6l0.7,3.8l0.9-3.8h1.7l0.9,3.8l0.7-3.8H144.5z"/>
	<path class="st3" d="M146.1,14.9c-0.4-0.2-0.7-0.5-1-0.9c-0.2-0.4-0.4-0.9-0.4-1.4c0-0.5,0.1-1,0.4-1.4c0.2-0.4,0.6-0.7,1-1
		c0.4-0.2,0.9-0.3,1.4-0.3c0.5,0,1,0.1,1.4,0.3c0.4,0.2,0.7,0.5,1,1c0.2,0.4,0.4,0.9,0.4,1.4c0,0.5-0.1,1-0.4,1.4
		c-0.2,0.4-0.6,0.7-1,1c-0.4,0.2-0.9,0.3-1.4,0.3S146.5,15.2,146.1,14.9z M148.3,13.5c0.2-0.2,0.3-0.6,0.3-1s-0.1-0.7-0.3-1
		c-0.2-0.2-0.5-0.3-0.8-0.3c-0.3,0-0.6,0.1-0.8,0.3c-0.2,0.2-0.3,0.6-0.3,1c0,0.4,0.1,0.7,0.3,1c0.2,0.2,0.5,0.3,0.8,0.3
		C147.8,13.9,148.1,13.8,148.3,13.5z"/>
	<path class="st3" d="M153.4,10.1c0.3-0.2,0.6-0.3,0.9-0.3v1.7h-0.4c-0.4,0-0.7,0.1-0.9,0.3c-0.2,0.2-0.3,0.5-0.3,0.9v2.5h-1.6V9.9
		h1.6v0.9C152.9,10.5,153.2,10.3,153.4,10.1z"/>
	<path class="st3" d="M156.8,8.2v7h-1.6v-7H156.8z"/>
	<path class="st3" d="M157.9,11.1c0.2-0.4,0.5-0.7,0.8-0.9c0.4-0.2,0.7-0.3,1.2-0.3c0.3,0,0.7,0.1,1,0.2c0.3,0.1,0.5,0.3,0.7,0.6
		V8.2h1.6v7h-1.6v-0.8c-0.2,0.3-0.4,0.5-0.6,0.6c-0.3,0.2-0.6,0.2-1,0.2c-0.4,0-0.8-0.1-1.2-0.3c-0.4-0.2-0.6-0.5-0.8-1
		c-0.2-0.4-0.3-0.9-0.3-1.4C157.6,12,157.7,11.5,157.9,11.1z M161.3,11.6c-0.2-0.2-0.5-0.3-0.8-0.3c-0.3,0-0.6,0.1-0.8,0.3
		c-0.2,0.2-0.3,0.5-0.3,1c0,0.4,0.1,0.7,0.3,1c0.2,0.2,0.5,0.4,0.8,0.4c0.3,0,0.6-0.1,0.8-0.3c0.2-0.2,0.3-0.6,0.3-1
		C161.6,12.2,161.5,11.8,161.3,11.6z"/>
	<path class="st3" d="M167.4,14.9c-0.4-0.2-0.7-0.5-1-0.9c-0.2-0.4-0.4-0.9-0.4-1.4c0-0.5,0.1-1,0.4-1.4c0.2-0.4,0.6-0.7,1-1
		c0.4-0.2,0.9-0.3,1.4-0.3c0.5,0,1,0.1,1.4,0.3c0.4,0.2,0.7,0.5,1,1c0.2,0.4,0.4,0.9,0.4,1.4c0,0.5-0.1,1-0.4,1.4
		c-0.2,0.4-0.6,0.7-1,1c-0.4,0.2-0.9,0.3-1.4,0.3S167.8,15.2,167.4,14.9z M169.6,13.5c0.2-0.2,0.3-0.6,0.3-1s-0.1-0.7-0.3-1
		c-0.2-0.2-0.5-0.3-0.8-0.3c-0.3,0-0.6,0.1-0.8,0.3c-0.2,0.2-0.3,0.6-0.3,1c0,0.4,0.1,0.7,0.3,1c0.2,0.2,0.5,0.3,0.8,0.3
		S169.4,13.8,169.6,13.5z"/>
	<path class="st3" d="M175.1,11.3h-0.9v3.9h-1.6v-3.9H172V9.9h0.6V9.8c0-0.6,0.2-1.1,0.6-1.5c0.4-0.3,0.9-0.5,1.6-0.5
		c0.1,0,0.2,0,0.3,0v1.4c-0.3,0-0.5,0-0.7,0.1c-0.1,0.1-0.2,0.3-0.2,0.6v0h0.9V11.3z"/>
	<path class="st3" d="M183.8,15.2h-1.6l-2.7-4.1v4.1h-1.6V8.6h1.6l2.7,4.1V8.6h1.6V15.2z"/>
	<path class="st3" d="M189.3,8.6v1.3h-2.7v1.4h2v1.3h-2v2.7h-1.6V8.6H189.3z"/>
	<path class="st3" d="M194.9,8.6v1.3h-1.8v5.3h-1.6V9.9h-1.8V8.6H194.9z"/>
	<path class="st3" d="M196.6,15c-0.4-0.2-0.6-0.4-0.9-0.6c-0.2-0.3-0.3-0.6-0.4-0.9h1.6c0,0.2,0.1,0.3,0.3,0.4
		c0.2,0.1,0.3,0.2,0.6,0.2c0.2,0,0.4,0,0.5-0.1c0.1-0.1,0.2-0.2,0.2-0.3c0-0.2-0.1-0.3-0.2-0.3c-0.2-0.1-0.4-0.2-0.8-0.2
		c-0.4-0.1-0.7-0.2-0.9-0.3c-0.3-0.1-0.5-0.3-0.7-0.5c-0.2-0.2-0.3-0.5-0.3-0.9c0-0.3,0.1-0.6,0.3-0.8c0.2-0.2,0.4-0.4,0.7-0.6
		c0.3-0.1,0.7-0.2,1.2-0.2c0.7,0,1.2,0.2,1.6,0.5c0.4,0.3,0.6,0.8,0.7,1.3h-1.5c0-0.2-0.1-0.3-0.2-0.4c-0.1-0.1-0.3-0.2-0.5-0.2
		c-0.2,0-0.3,0-0.4,0.1s-0.2,0.2-0.2,0.3c0,0.2,0.1,0.3,0.2,0.3c0.2,0.1,0.4,0.2,0.8,0.2c0.4,0.1,0.7,0.2,1,0.3
		c0.2,0.1,0.5,0.3,0.6,0.5c0.2,0.2,0.3,0.5,0.3,0.9c0,0.3-0.1,0.6-0.3,0.8c-0.2,0.2-0.4,0.4-0.7,0.6c-0.3,0.1-0.7,0.2-1.1,0.2
		C197.4,15.3,197,15.2,196.6,15z"/>
</g>
</svg>
