<?xml version="1.0" encoding="utf-8"?>
<!-- Generator: Adobe Illustrator 26.0.1, SVG Export Plug-In . SVG Version: 6.00 Build 0)  -->
<svg version="1.1" id="Layer_1" xmlns="http://www.w3.org/2000/svg" xmlns:xlink="http://www.w3.org/1999/xlink" x="0px" y="0px"
	 viewBox="0 0 200 23" style="enable-background:new 0 0 200 23;" xml:space="preserve">
<style type="text/css">
	.st0{fill:#FFFFFF;}
</style>
<g>
	<path class="st0" d="M21.1,22.5H15L6.8,10.2v12.3H0.7V0.4h6.1L15,12.9V0.4h6.1V22.5z"/>
	<path class="st0" d="M39.6,0.4v4.9h-8.8v3.9h6.5v4.7h-6.5v8.6h-6.1V0.4H39.6z"/>
	<path class="st0" d="M58.8,0.4v4.9h-5.9v17.2h-6.1V5.3H41V0.4H58.8z"/>
	<path class="st0" d="M83.7,0.4v4.9h-5.9v17.2h-6.1V5.3h-5.8V0.4H83.7z"/>
	<path class="st0" d="M99.9,18.9h-7.8l-1.2,3.6h-6.4l8-22.1h7.1l8,22.1h-6.5L99.9,18.9z M98.4,14.2L96,7.1l-2.3,7.1H98.4z"/>
	<path class="st0" d="M115.7,17.8h6.9v4.7h-13V0.4h6.1V17.8z"/>
	<path class="st0" d="M138,22.5l-6.9-9.7v9.7h-6.1V0.4h6.1V10l6.9-9.5h7.1l-8.1,10.7l8.5,11.4H138z"/>
	<path class="st0" d="M149.6,20.9c-1.6-1.2-2.5-3-2.7-5.2h6.5c0.1,0.8,0.3,1.3,0.7,1.7c0.4,0.4,0.9,0.5,1.5,0.5c0.6,0,1-0.1,1.4-0.4
		c0.4-0.3,0.5-0.7,0.5-1.2c0-0.6-0.3-1.1-0.9-1.5s-1.6-0.8-2.9-1.2c-1.4-0.5-2.6-0.9-3.5-1.4c-0.9-0.4-1.7-1.1-2.3-2
		c-0.7-0.9-1-2-1-3.4c0-1.4,0.4-2.6,1.1-3.6c0.7-1,1.7-1.8,2.9-2.3c1.3-0.5,2.7-0.8,4.3-0.8c2.6,0,4.6,0.6,6.1,1.8
		c1.5,1.2,2.4,2.9,2.5,5.1h-6.7c0-0.7-0.2-1.2-0.6-1.5c-0.4-0.3-0.9-0.5-1.5-0.5c-0.5,0-0.8,0.1-1.1,0.4c-0.3,0.3-0.4,0.7-0.4,1.2
		c0,0.4,0.2,0.8,0.5,1.1c0.3,0.3,0.7,0.6,1.2,0.8c0.5,0.2,1.2,0.5,2.1,0.8c1.4,0.5,2.5,1,3.5,1.4c0.9,0.5,1.7,1.1,2.3,2s1,1.9,1,3.2
		c0,1.3-0.3,2.5-1,3.5c-0.7,1-1.6,1.9-2.8,2.5c-1.2,0.6-2.7,0.9-4.4,0.9C153.4,22.7,151.3,22.1,149.6,20.9z"/>
</g>
</svg>
